<?xml version="1.0" encoding="UTF-8" standalone="no"?>
<svg id="レイヤー_1" style="enable-background:new 0 0 85 22" xmlns="http://www.w3.org/2000/svg" xml:space="preserve" viewBox="0 0 85 22" version="1.1" y="0px" x="0px" xmlns:xlink="http://www.w3.org/1999/xlink">
<title>Popshoot</title>
<desc>Created with Sketch.</desc>
<g id="top" transform="translate(-245 -14)">
</g>
<g class="st0">
	<path class="st1" d="m1.5 16.5c-0.6 0-1.1-0.4-1.1-1v-0.1c0.1-1.6 0.1-3.3 0.1-5v-5.4c0-2.5 0-3.8 3.9-3.8h1.1c3.2 0.2 4.6 2.3 4.6 4.5s-1.5 4.5-4.3 4.8c-0.5 0.1-0.9 0.1-1.4 0.1s-0.9 0-1.5-0.2h-0.1c-0.1 0-0.1 0.1-0.1 0.2 0 1.2 0.1 2.7 0.1 4v0.8c-0.1 0.8-0.7 1.1-1.3 1.1zm2.8-13.2c-1.6 0-1.8 0.2-1.8 2.1v2.2 0.3c0 0.4 0.4 0.6 1.6 0.6 0.4 0 0.8 0 1.2-0.1 1.7-0.1 2.6-1.4 2.6-2.7 0-1.2-0.8-2.3-2.6-2.3 0 0-0.5-0.1-1-0.1z"/>
	<path class="st1" d="m11.1 11.6c0-2.9 2.2-5.1 5-5.1 2.9 0 5 2.1 5 5.1s-2.2 5.1-5 5.1-5-2.1-5-5.1zm8 0c0-2-1.4-3.2-3-3.2s-3 1.2-3 3.2 1.4 3.2 3 3.2c1.7 0 3-1.2 3-3.2z"/>
	<path class="st1" d="m25.8 7.7c0.8-0.7 1.7-1.1 2.8-1.1 2.8 0 4.8 2 4.8 5 0 2.9-2.1 5-4.8 5-1.1 0-2-0.4-2.8-1.1l-0.1-0.1s-0.1 0-0.1 0.1c0 2.2 0 4.1 0.1 4.9 0 0.6-0.4 1-1 1-0.5 0-1.1-0.4-1.1-1v-0.1c0.1-0.7 0.1-2.2 0.1-4v-8.7c0-0.7 0.5-1.1 1-1.1 0.4 0.2 0.9 0.5 1.1 1.2-0.1-0.1-0.1 0 0 0zm5.6 3.9c0-2-1.3-3.2-2.9-3.2s-2.9 1.2-2.9 3.2 1.3 3.2 2.9 3.2c1.7 0 2.9-1.2 2.9-3.2z"/>
	<path class="st1" d="m38.4 16.7c-2.4 0-3.5-1.4-3.5-2 0-0.5 0.5-1 1-1 0.3 0 0.6 0.1 0.8 0.4 0.3 0.4 0.8 0.7 1.6 0.7 1.1 0 1.5-0.6 1.5-1 0-0.6-0.4-1-2.8-2.1-1.2-0.5-1.8-1.5-1.8-2.5 0-1.4 1.1-2.7 3-2.7 1.8 0 3.1 0.9 3.1 1.7 0 0.5-0.5 1-1 1-0.3 0-0.6-0.1-0.8-0.4-0.2-0.2-0.6-0.5-1.3-0.5s-1.1 0.4-1.1 0.8c0 0.3 0.2 0.7 0.7 0.9 0.5 0.3 1.4 0.7 2 1 1.4 0.7 2 1.8 2 2.7 0.1 1.6-1.4 3-3.4 3z"/>
	<path class="st1" d="m50.7 15.6v-3.5-1.8c-0.1-1.4-0.9-1.9-1.9-1.9-1.2 0-2.4 0.9-2.5 2.1v1.5c0 0.9 0 2.1 0.1 3.5 0 0.4-0.2 1-1 1-0.5 0-1.1-0.3-1.1-1 0.1-1.9 0.1-4.5 0.1-7.1v-6.2c0-0.6 0.5-0.9 1.1-0.9 0.5 0 1 0.3 1 0.9 0 1.9 0 4.3-0.1 5v0.1l0.1-0.1c0.6-0.5 1.7-0.8 2.7-0.8 1.7 0 3.4 0.9 3.5 3.4 0 0.7 0.1 2.5 0.1 4v1.6c0 0.7-0.5 1.1-1 1.1-0.6 0.1-1.1-0.3-1.1-0.9z"/>
	<path class="st1" d="m55 11.6c0-2.9 2.2-5.1 5-5.1s5 2.1 5 5.1c0 3-2.2 5.1-5 5.1s-5-2.1-5-5.1zm8.1 0c0-2-1.4-3.2-3-3.2s-3 1.2-3 3.2c0 2 1.4 3.2 3 3.2s3-1.2 3-3.2z"/>
	<path class="st1" d="m66.8 11.6c0-2.9 2.2-5.1 5-5.1 2.9 0 5 2.1 5 5.1s-2.2 5.1-5 5.1-5-2.1-5-5.1zm8.1 0c0-2-1.4-3.2-3-3.2s-3 1.2-3 3.2 1.4 3.2 3 3.2 3-1.2 3-3.2z"/>
	<path class="st1" d="m82.3 8.6c-0.3 0-0.3 0.1-0.3 0.2 0 0.7-0.1 2.4-0.1 3.8 0 1.6 0.1 2.2 1.2 2.2h0.5 0.2c0.5 0 0.9 0.4 0.9 0.9 0 0.7-0.7 1.1-1.7 1.1-3 0-3-2.6-3-3.4v-4-0.3c0-0.3-0.1-0.3-0.3-0.3h-0.6c-0.6 0-0.9-0.5-0.9-1s0.3-0.9 0.9-0.9h0.6c0.3-0.2 0.3-0.2 0.3-0.5v-0.9-0.7-0.1c0-0.6 0.5-0.9 1-0.9 1.1 0 1.1 1 1.1 1.2v1.3c0 0.3 0.1 0.3 0.3 0.3h1.3c0.6 0 0.9 0.5 0.9 0.9 0 0.5-0.3 0.9-0.9 0.9h-1.4z"/>
</g>
</svg>
